<svg xmlns="http://www.w3.org/2000/svg" width="124" height="28" fill="none" viewBox="0 0 124 28"><path fill="url(#paint0_angular)" d="M27.3523 13.864C27.6469 13.864 27.7943 14.2627 27.7943 15.06C27.7943 15.4933 27.6123 16.022 27.2483 16.646C26.8843 17.2527 26.4076 17.816 25.8183 18.336C25.2463 18.8387 24.6049 19.2547 23.8943 19.584C23.1836 19.9133 22.4296 20.078 21.6323 20.078C20.8523 20.078 20.2369 19.8267 19.7863 19.324C19.3529 18.804 19.1363 18.232 19.1363 17.608C19.1363 16.9667 19.2403 16.2473 19.4483 15.45C19.6563 14.6527 19.8816 13.8207 20.1243 12.954C20.7829 10.6487 21.1209 9.028 21.1383 8.092C21.1383 7.69333 21.0863 7.39 20.9823 7.182C20.8783 6.95667 20.6789 6.844 20.3843 6.844C19.8643 6.844 19.3096 7.156 18.7203 7.78C18.1309 8.404 17.5763 9.20133 17.0563 10.172C15.8603 12.3907 15.2276 14.5573 15.1583 16.672C15.1929 16.9147 15.2276 17.1573 15.2623 17.4C15.2969 17.6427 15.3143 17.9027 15.3143 18.18C15.3143 18.7347 15.0369 19.246 14.4823 19.714C13.9449 20.1647 13.3383 20.39 12.6623 20.39C12.2636 20.39 11.9689 20.1993 11.7783 19.818C11.5876 19.4193 11.4923 18.934 11.4923 18.362C11.4923 17.79 11.6223 17.01 11.8823 16.022C12.1423 15.034 12.4283 13.9853 12.7403 12.876C13.5723 9.94667 13.9969 7.76267 14.0143 6.324C14.0143 5.596 13.9189 5.024 13.7283 4.608C13.5549 4.192 13.2083 3.984 12.6883 3.984C11.7523 3.984 10.8249 4.65133 9.90628 5.986C8.98762 7.32067 8.16428 9.392 7.43628 12.2C7.24561 12.928 7.09828 13.5607 6.99428 14.098L6.96828 14.592C7.29761 16.1867 7.46228 17.2267 7.46228 17.712C7.46228 18.7173 7.10695 19.3933 6.39628 19.74C6.06695 19.896 5.74628 20.0433 5.43428 20.182C5.13961 20.3207 4.81895 20.39 4.47228 20.39C3.60561 20.39 3.17228 19.5667 3.17228 17.92C3.17228 16.256 3.63161 13.0147 4.55028 8.196C4.87961 6.46267 5.04428 5.492 5.04428 5.284C5.04428 3.88 4.68895 3.178 3.97828 3.178C3.73561 3.178 3.51028 3.24733 3.30228 3.386C3.11161 3.52467 2.91228 3.672 2.70428 3.828C2.51361 3.984 2.31428 4.13133 2.10628 4.27C1.89828 4.40867 1.65561 4.478 1.37828 4.478C1.11828 4.478 0.988281 4.244 0.988281 3.776C0.988281 2.82267 1.43028 2.04267 2.31428 1.436C3.16361 0.811999 4.19495 0.499998 5.40828 0.499998C6.96828 0.499998 7.88695 1.228 8.16428 2.684C8.23361 3.11733 8.28561 3.57667 8.32028 4.062C9.60295 1.65267 11.2236 0.447999 13.1823 0.447999C15.3143 0.447999 16.5363 1.47067 16.8483 3.516C16.9523 4.10533 16.9956 4.738 16.9783 5.414V5.622C18.1049 4.062 19.4396 3.282 20.9823 3.282C23.1663 3.282 24.2583 4.59933 24.2583 7.234C24.2583 8.378 24.0763 9.72133 23.7123 11.264C23.3656 12.7893 23.1056 13.89 22.9323 14.566C22.7763 15.2247 22.6983 15.736 22.6983 16.1C22.6983 16.7587 22.9236 17.088 23.3743 17.088C23.8423 17.088 24.9429 16.1867 26.6763 14.384C26.9883 14.0373 27.2136 13.864 27.3523 13.864ZM33.4928 18.102C32.6261 19.298 31.4648 19.896 30.0088 19.896C28.8301 19.896 27.8854 19.6533 27.1748 19.168C26.4814 18.6653 26.1348 17.8767 26.1348 16.802C26.1348 16.3513 26.1954 15.9353 26.3168 15.554C26.4554 15.1727 26.6721 14.7047 26.9668 14.15L27.7208 7.988C28.2581 7.572 28.9861 7.364 29.9048 7.364C30.6848 7.364 31.1268 7.884 31.2308 8.924C31.2654 9.236 31.2828 9.60867 31.2828 10.042C31.2828 10.458 31.2134 10.9 31.0748 11.368C30.3814 13.76 30.0434 15.3633 30.0608 16.178C30.0608 16.802 30.4248 17.114 31.1528 17.114C31.8808 17.114 32.4181 16.88 32.7648 16.412C33.1114 15.944 33.4061 15.3633 33.6488 14.67C34.0994 12.746 34.5154 11.16 34.8968 9.912C35.2954 8.664 35.5468 7.91867 35.6508 7.676C35.8241 7.26 36.1534 7.04333 36.6388 7.026C37.1241 7.04333 37.5834 7.39 38.0168 8.066C38.4501 8.72467 38.6668 9.236 38.6668 9.6C38.6321 10.8133 37.8781 13.8727 36.4048 18.778C37.5314 17.894 38.6494 16.8107 39.7588 15.528C40.1401 15.0773 40.4608 14.7047 40.7208 14.41C40.9808 14.098 41.1888 13.942 41.3448 13.942C41.5874 13.942 41.7088 14.2193 41.7088 14.774C41.7088 15.866 41.0934 17.14 39.8628 18.596C38.6494 20.052 37.1588 21.1873 35.3908 22.002C35.1828 22.6953 34.9574 23.354 34.7148 23.978C34.4721 24.602 34.1601 25.148 33.7788 25.616C32.9468 26.6213 31.6814 27.124 29.9828 27.124C28.8388 27.124 27.8594 26.7947 27.0448 26.136C26.2474 25.4773 25.8488 24.654 25.8488 23.666C25.8488 23.1113 26.0308 22.6693 26.3948 22.34C26.7761 22.0107 27.2874 21.7333 27.9288 21.508C28.5874 21.3 29.3501 21.1093 30.2168 20.936C31.0834 20.78 32.0108 20.5807 32.9988 20.338C33.2414 19.298 33.4061 18.5527 33.4928 18.102ZM29.9568 25.122C30.7714 25.122 31.5081 24.4113 32.1668 22.99C31.5428 23.1113 30.9881 23.198 30.5028 23.25C30.0174 23.3193 29.6014 23.38 29.2548 23.432C28.5614 23.536 28.2234 23.718 28.2408 23.978C28.2408 24.3073 28.4314 24.5847 28.8128 24.81C29.2114 25.0353 29.5928 25.1393 29.9568 25.122ZM54.6608 15.736C54.6608 16.6373 54.8601 17.088 55.2588 17.088C55.6921 17.088 56.4461 16.5507 57.5208 15.476C57.7981 15.1987 58.0928 14.8607 58.4048 14.462C58.7168 14.0633 58.9595 13.864 59.1328 13.864C59.4795 13.864 59.6528 14.176 59.6528 14.8C59.6701 15.4067 59.4968 16.022 59.1328 16.646C58.7688 17.2527 58.2921 17.816 57.7028 18.336C57.1308 18.8387 56.4895 19.2547 55.7788 19.584C55.0681 19.9133 54.3748 20.078 53.6988 20.078C52.6761 20.078 51.9655 19.8267 51.5668 19.324C51.1855 18.804 50.9948 18.206 50.9948 17.53C50.9948 16.854 51.0555 16.1867 51.1768 15.528C51.3848 14.488 51.9915 12.4773 52.9968 9.496C53.4648 8.07467 53.6988 7.00867 53.6988 6.298C53.6988 5.58733 53.5601 5.024 53.2828 4.608C53.0228 4.192 52.6155 3.984 52.0608 3.984C51.5235 3.984 50.9948 4.17467 50.4748 4.556C49.9548 4.92 49.4695 5.40533 49.0188 6.012C48.2041 7.06933 47.4761 8.456 46.8348 10.172C46.2108 11.8707 45.8035 13.344 45.6128 14.592C45.9421 16.1867 46.1068 17.2267 46.1068 17.712C46.1068 18.7173 45.7515 19.3933 45.0408 19.74C44.7115 19.896 44.3908 20.0433 44.0788 20.182C43.7841 20.3207 43.4635 20.39 43.1168 20.39C42.2501 20.39 41.8168 19.5667 41.8168 17.92C41.8168 16.256 42.2761 13.0147 43.1948 8.196C43.5241 6.46267 43.6888 5.492 43.6888 5.284C43.6888 3.88 43.3335 3.178 42.6228 3.178C42.3801 3.178 42.1548 3.24733 41.9468 3.386C41.7561 3.52467 41.5568 3.672 41.3488 3.828C41.1581 3.984 40.9588 4.13133 40.7508 4.27C40.5428 4.40867 40.3001 4.478 40.0228 4.478C39.7628 4.478 39.6328 4.244 39.6328 3.776C39.6328 2.82267 40.0748 2.04267 40.9588 1.436C41.8081 0.811999 42.8395 0.499998 44.0528 0.499998C45.7515 0.499998 46.7048 1.332 46.9128 2.996C46.9821 3.48133 47.0081 4.01 46.9908 4.582V4.764C47.6495 3.49867 48.4381 2.46733 49.3568 1.67C50.2928 0.855332 51.3761 0.447999 52.6068 0.447999C54.3055 0.447999 55.5361 0.898666 56.2988 1.8C57.8935 3.724 57.8155 6.896 56.0648 11.316C55.7181 12.2173 55.3975 13.0493 55.1028 13.812C54.8081 14.5747 54.6608 15.216 54.6608 15.736ZM68.8934 17.79C67.524 19.402 65.8774 20.208 63.9534 20.208C62.0467 20.208 60.6167 19.7227 59.6634 18.752C58.71 17.764 58.242 16.542 58.2594 15.086C58.242 13.0233 58.892 11.2467 60.2094 9.756C61.5267 8.26533 63.2514 7.52 65.3834 7.52C66.354 7.52 67.134 7.64133 67.7234 7.884C68.746 8.3 69.2574 8.69 69.2574 9.054C69.2574 9.33133 68.538 9.47867 67.0994 9.496C65.678 9.496 64.482 9.99 63.5114 10.978C62.558 11.9487 62.0814 13.1793 62.0814 14.67C62.0814 15.45 62.3067 16.1087 62.7574 16.646C63.2254 17.166 63.8754 17.426 64.7074 17.426C65.5567 17.426 66.2587 17.2527 66.8134 16.906C65.5827 16.074 64.9674 14.8693 64.9674 13.292C64.95 12.46 65.2447 11.706 65.8514 11.03C66.4754 10.3367 67.264 9.99 68.2174 9.99C69.188 9.97267 69.8814 10.2327 70.2974 10.77C70.7134 11.3073 70.9214 12.0007 70.9214 12.85C70.9214 13.682 70.722 14.566 70.3234 15.502H70.4794C71.242 15.4847 71.9007 15.216 72.4554 14.696C72.6634 14.488 72.8367 14.306 72.9754 14.15C73.1314 13.994 73.2874 13.916 73.4434 13.916C73.686 13.916 73.8074 14.202 73.8074 14.774C73.8074 15.8313 73.4954 16.6287 72.8714 17.166C72.2474 17.686 71.554 17.946 70.7914 17.946C70.046 17.946 69.4134 17.894 68.8934 17.79ZM68.6594 14.774C68.954 14.15 69.1014 13.5433 69.1014 12.954C69.1014 12.3647 68.9107 12.07 68.5294 12.07C68.3734 12.07 68.2434 12.1827 68.1394 12.408C68.0354 12.6333 67.9834 12.85 67.9834 13.058C67.9834 13.7513 68.2087 14.3233 68.6594 14.774ZM73.6506 18.596C73.4599 18.128 73.3212 17.5907 73.2346 16.984C73.1479 16.36 73.1046 15.4933 73.1046 14.384C73.1046 13.2747 73.3126 11.7753 73.7286 9.886H72.5586C72.3506 9.886 72.2466 9.79933 72.2466 9.626C72.2466 9.21 72.2812 8.872 72.3506 8.612C72.4372 8.33467 72.6279 8.02267 72.9226 7.676H73.5466C73.7892 7.676 74.0492 7.66733 74.3266 7.65C75.1586 4.98067 76.0079 3.646 76.8746 3.646C77.5679 3.66333 78.0532 4.10533 78.3306 4.972C78.3999 5.21467 78.4779 5.47467 78.5646 5.752L77.4986 7.624C78.7119 7.65867 79.4746 7.676 79.7866 7.676C80.1159 7.676 80.2892 7.71067 80.3066 7.78C80.3412 7.832 80.3586 7.91867 80.3586 8.04C80.3586 8.352 80.2806 8.742 80.1246 9.21C79.9859 9.678 79.8212 9.90333 79.6306 9.886L77.0306 9.756C76.6666 11.8707 76.4846 13.6213 76.4846 15.008C76.4846 16.3947 76.6839 17.088 77.0826 17.088C77.4119 17.088 78.0099 16.8193 78.8766 16.282C79.7432 15.7273 80.3672 15.1987 80.7486 14.696C81.1299 14.1933 81.4419 13.942 81.6846 13.942C81.9272 13.942 82.0486 14.2367 82.0486 14.826C82.0486 15.4153 81.8406 16.022 81.4246 16.646C81.0086 17.2527 80.4799 17.816 79.8386 18.336C79.2146 18.8387 78.5126 19.2547 77.7326 19.584C76.9699 19.9133 76.3026 20.078 75.7306 20.078C75.1586 20.078 74.7166 19.948 74.4046 19.688C74.1099 19.4107 73.8586 19.0467 73.6506 18.596ZM86.8165 17.166C88.1685 17.166 89.4772 16.6287 90.7425 15.554C91.2105 15.1553 91.5918 14.7913 91.8865 14.462C92.1812 14.1153 92.4065 13.942 92.5625 13.942C92.8052 13.942 92.9265 14.1847 92.9265 14.67C92.9265 15.1553 92.7965 15.7013 92.5365 16.308C92.2765 16.8973 91.8432 17.478 91.2365 18.05C89.7458 19.454 87.7005 20.156 85.1005 20.156C83.0378 20.156 81.6338 19.4107 80.8885 17.92C80.6285 17.4 80.4985 16.6547 80.4985 15.684C80.4985 14.7133 80.6892 13.708 81.0705 12.668C81.4518 11.6107 81.9545 10.7007 82.5785 9.938C83.2198 9.17533 83.9565 8.586 84.7885 8.17C85.6205 7.73667 86.5045 7.52 87.4405 7.52C88.3938 7.52 89.1218 7.754 89.6245 8.222C90.1445 8.69 90.4045 9.29667 90.4045 10.042C90.4045 10.7873 90.2138 11.4027 89.8325 11.888C89.4685 12.356 88.9918 12.7547 88.4025 13.084C87.8132 13.396 87.1545 13.682 86.4265 13.942C85.7158 14.1847 85.0138 14.462 84.3205 14.774V15.424C84.3378 16.048 84.5978 16.49 85.1005 16.75C85.6032 17.01 86.1752 17.1487 86.8165 17.166ZM86.3745 9.834C85.4732 9.834 84.8492 10.8827 84.5025 12.98C84.8665 12.7373 85.2045 12.5207 85.5165 12.33C85.8458 12.1393 86.1318 11.9573 86.3745 11.784C86.8945 11.4027 87.1632 10.9693 87.1805 10.484C87.1805 10.0507 86.9118 9.834 86.3745 9.834ZM107.816 20H99.2847V16.7188H101.315V10.269C100.946 10.3647 100.44 10.4126 99.7974 10.4126C99.5923 10.4126 99.4214 10.4023 99.2847 10.3818V7.22363C99.3667 7.23047 99.4521 7.23389 99.541 7.23389C100.437 7.23389 101.267 7.05957 102.033 6.71094C102.812 6.35547 103.369 5.93506 103.704 5.44971H105.847V16.7188H107.816V20ZM111.395 16.165L115.106 15.9292C115.435 16.7085 116.067 17.0981 117.003 17.0981C117.557 17.0981 118.025 16.9478 118.408 16.647C118.777 16.3462 118.962 15.8745 118.962 15.2319C118.962 14.603 118.777 14.1416 118.408 13.8477C118.032 13.5605 117.595 13.417 117.096 13.417C116.33 13.417 115.688 13.6973 115.168 14.2578L112.061 13.1606L112.492 5.73682H123.002V9.46924H120.592L120.254 8.59766H115.158L115.035 11.4277C115.951 10.8535 117.041 10.5664 118.306 10.5664C119.851 10.5664 121.129 10.98 122.141 11.8071C123.152 12.6343 123.658 13.769 123.658 15.2114C123.658 16.6196 123.125 17.792 122.059 18.7285C120.985 19.665 119.492 20.1333 117.578 20.1333C115.896 20.1333 114.505 19.7778 113.404 19.0669C112.311 18.3628 111.641 17.3955 111.395 16.165Z"/><defs><radialGradient id="paint0_angular" cx="0" cy="0" r="1" gradientTransform="translate(63 14.5) rotate(-62.3189) scale(34.442 120.146)" gradientUnits="userSpaceOnUse"><stop offset=".084" stop-color="#F42222"/><stop offset=".289" stop-color="#FFBB89" stop-opacity=".23"/></radialGradient></defs></svg>